name C:\Users\u0101727\Documents\MyRepositories\paper-ad\predictivesimulations_2d/Results/PredSim_2D/IK_c9.mot
datacolumns 11
datarows 17
range 0.00000000 0.15349821
endheader
time	pelvis_tilt	pelvis_tx	pelvis_ty	hip_flexion_l	hip_flexion_r	knee_angle_l	knee_angle_r	ankle_angle_l	ankle_angle_r	lumbar_extension	
          0.00000000	        -15.15441670	          0.00000000	          0.88361592	          0.97745906	         38.08826078	        -16.23154550	        -10.56401904	          5.77470238	         13.83957277	          9.66220869	
          0.00959364	        -15.11635973	          0.01477807	          0.88282941	          0.88373619	         37.60358314	        -17.72529877	         -9.95877097	          4.57447684	         13.39133133	          9.75911121	
          0.01918728	        -15.06725662	          0.02981959	          0.88199196	          0.86875998	         37.02374047	        -19.38655779	         -9.63953185	          3.27042687	         12.89097934	          9.86905641	
          0.02878091	        -15.00966401	          0.04510751	          0.88112697	          0.93976767	         36.28066545	        -21.21220496	         -9.72685979	          1.84255609	         12.33643933	          9.99601671	
          0.03837455	        -14.95179392	          0.06045595	          0.88036139	          1.10139099	         35.41750015	        -23.18366367	        -10.04107857	          0.37620181	         11.76705374	         10.13056535	
          0.04796819	        -14.90462232	          0.07552419	          0.87992476	          1.38048976	         34.55942973	        -25.20847880	        -10.32125176	         -0.90710065	         11.21676246	         10.24945814	
          0.05756183	        -14.87671320	          0.09006509	          0.88007888	          1.80533179	         33.74370408	        -27.14642153	        -10.57951369	         -1.90931987	         10.68544498	         10.33877981	
          0.06715546	        -14.87040725	          0.10401568	          0.88097953	          2.37181065	         32.97277575	        -28.93486184	        -10.81073669	         -2.65983994	         10.18776998	         10.39738921	
          0.07674910	        -14.88101343	          0.11745925	          0.88258586	          3.06314261	         32.22811646	        -30.59451305	        -11.00293337	         -3.16809171	          9.74003321	         10.43142822	
          0.08634274	        -14.90193931	          0.13052001	          0.88468802	          3.85878822	         31.48860845	        -32.15449105	        -11.14718106	         -3.44681754	          9.35372225	         10.44792240	
          0.09593638	        -14.92782026	          0.14330547	          0.88705341	          4.74319001	         30.73744292	        -33.63238191	        -11.23665926	         -3.51160175	          9.03511116	         10.45218506	
          0.10553002	        -14.95521758	          0.15588986	          0.88949928	          5.70432080	         29.96517552	        -35.03665241	        -11.26945470	         -3.37746463	          8.78581962	         10.44741067	
          0.11512365	        -14.98223687	          0.16832017	          0.89190201	          6.73317181	         29.16728346	        -36.36862301	        -11.24601152	         -3.06069908	          8.60480984	         10.43535573	
          0.12471729	        -15.00791656	          0.18062645	          0.89418239	          7.82234226	         28.34221982	        -37.62518554	        -11.16833275	         -2.57805607	          8.48943796	         10.41703014	
          0.13431093	        -15.03176759	          0.19282900	          0.89629003	          8.96565400	         27.49035892	        -38.80145448	        -11.03989831	         -1.94640383	          8.43596631	         10.39304961	
          0.14390457	        -15.05352285	          0.20494291	          0.89819248	         10.15755508	         26.61335139	        -39.89134146	        -10.86555910	         -1.18268479	          8.43985542	         10.36386578	
          0.15349821	        -15.07301053	          0.21698059	          0.89986880	         11.39269169	         25.71379261	        -40.88807019	        -10.65134748	         -0.30406432	          8.49596258	         10.32988510	
